<mxfile host="app.diagrams.net" modified="2020-09-24T12:01:45.769Z" agent="5.0 (X11)" etag="llKnGbaUEbBVLx6Eb2Jm" version="13.7.5" type="github">
  <diagram id="L1Two2kQIfTQkO6MM9mO" name="Page-1">
    <mxGraphModel dx="819" dy="464" grid="1" gridSize="10" guides="1" tooltips="1" connect="1" arrows="1" fold="1" page="1" pageScale="1" pageWidth="850" pageHeight="1100" math="0" shadow="0">
      <root>
        <mxCell id="0" />
        <mxCell id="1" parent="0" />
        <mxCell id="ceo_-ZL4Yt74vd1bt4Sj-1" value="" style="ellipse;whiteSpace=wrap;html=1;aspect=fixed;" vertex="1" parent="1">
          <mxGeometry x="375" y="192" width="120" height="120" as="geometry" />
        </mxCell>
        <mxCell id="ceo_-ZL4Yt74vd1bt4Sj-2" value="Pixhawk Controller " style="text;html=1;strokeColor=none;fillColor=none;align=center;verticalAlign=middle;whiteSpace=wrap;rounded=0;" vertex="1" parent="1">
          <mxGeometry x="415" y="240" width="40" height="22" as="geometry" />
        </mxCell>
        <mxCell id="ceo_-ZL4Yt74vd1bt4Sj-3" value="" style="rounded=0;whiteSpace=wrap;html=1;" vertex="1" parent="1">
          <mxGeometry x="375" y="377" width="120" height="60" as="geometry" />
        </mxCell>
        <mxCell id="ceo_-ZL4Yt74vd1bt4Sj-4" value="Companion&lt;br&gt;Computer" style="text;html=1;strokeColor=none;fillColor=none;align=center;verticalAlign=middle;whiteSpace=wrap;rounded=0;" vertex="1" parent="1">
          <mxGeometry x="415" y="397" width="40" height="20" as="geometry" />
        </mxCell>
        <mxCell id="ceo_-ZL4Yt74vd1bt4Sj-5" value="" style="endArrow=classic;startArrow=classic;html=1;entryX=0.5;entryY=1;entryDx=0;entryDy=0;exitX=0.5;exitY=0;exitDx=0;exitDy=0;" edge="1" parent="1" source="ceo_-ZL4Yt74vd1bt4Sj-3" target="ceo_-ZL4Yt74vd1bt4Sj-1">
          <mxGeometry width="50" height="50" relative="1" as="geometry">
            <mxPoint x="400" y="387" as="sourcePoint" />
            <mxPoint x="450" y="337" as="targetPoint" />
          </mxGeometry>
        </mxCell>
        <mxCell id="ceo_-ZL4Yt74vd1bt4Sj-6" value="" style="ellipse;whiteSpace=wrap;html=1;aspect=fixed;" vertex="1" parent="1">
          <mxGeometry x="590" y="267" width="80" height="80" as="geometry" />
        </mxCell>
        <mxCell id="ceo_-ZL4Yt74vd1bt4Sj-7" value="Sensor" style="text;html=1;strokeColor=none;fillColor=none;align=center;verticalAlign=middle;whiteSpace=wrap;rounded=0;" vertex="1" parent="1">
          <mxGeometry x="610" y="297" width="40" height="20" as="geometry" />
        </mxCell>
        <mxCell id="ceo_-ZL4Yt74vd1bt4Sj-8" value="" style="endArrow=classic;html=1;exitX=0.5;exitY=1;exitDx=0;exitDy=0;entryX=1;entryY=0.5;entryDx=0;entryDy=0;" edge="1" parent="1" source="ceo_-ZL4Yt74vd1bt4Sj-6" target="ceo_-ZL4Yt74vd1bt4Sj-3">
          <mxGeometry width="50" height="50" relative="1" as="geometry">
            <mxPoint x="400" y="387" as="sourcePoint" />
            <mxPoint x="450" y="337" as="targetPoint" />
            <Array as="points">
              <mxPoint x="630" y="407" />
            </Array>
          </mxGeometry>
        </mxCell>
        <mxCell id="ceo_-ZL4Yt74vd1bt4Sj-9" value="" style="rounded=0;whiteSpace=wrap;html=1;" vertex="1" parent="1">
          <mxGeometry x="80" y="377" width="120" height="60" as="geometry" />
        </mxCell>
        <mxCell id="ceo_-ZL4Yt74vd1bt4Sj-10" value="UI/Ground Control Station" style="text;html=1;strokeColor=none;fillColor=none;align=center;verticalAlign=middle;whiteSpace=wrap;rounded=0;" vertex="1" parent="1">
          <mxGeometry x="120" y="397" width="40" height="20" as="geometry" />
        </mxCell>
        <mxCell id="ceo_-ZL4Yt74vd1bt4Sj-11" value="" style="rounded=0;whiteSpace=wrap;html=1;" vertex="1" parent="1">
          <mxGeometry x="80" y="222" width="120" height="60" as="geometry" />
        </mxCell>
        <mxCell id="ceo_-ZL4Yt74vd1bt4Sj-12" value="Telemetry" style="text;html=1;strokeColor=none;fillColor=none;align=center;verticalAlign=middle;whiteSpace=wrap;rounded=0;" vertex="1" parent="1">
          <mxGeometry x="120" y="242" width="40" height="20" as="geometry" />
        </mxCell>
        <mxCell id="ceo_-ZL4Yt74vd1bt4Sj-13" value="" style="endArrow=classic;startArrow=classic;html=1;entryX=0.5;entryY=1;entryDx=0;entryDy=0;exitX=0.5;exitY=0;exitDx=0;exitDy=0;" edge="1" parent="1" source="ceo_-ZL4Yt74vd1bt4Sj-9" target="ceo_-ZL4Yt74vd1bt4Sj-11">
          <mxGeometry width="50" height="50" relative="1" as="geometry">
            <mxPoint x="400" y="387" as="sourcePoint" />
            <mxPoint x="450" y="337" as="targetPoint" />
          </mxGeometry>
        </mxCell>
        <mxCell id="ceo_-ZL4Yt74vd1bt4Sj-14" value="" style="endArrow=classic;startArrow=classic;html=1;exitX=1;exitY=0.5;exitDx=0;exitDy=0;entryX=0;entryY=0.5;entryDx=0;entryDy=0;" edge="1" parent="1" source="ceo_-ZL4Yt74vd1bt4Sj-11" target="ceo_-ZL4Yt74vd1bt4Sj-1">
          <mxGeometry width="50" height="50" relative="1" as="geometry">
            <mxPoint x="270" y="297" as="sourcePoint" />
            <mxPoint x="320" y="247" as="targetPoint" />
          </mxGeometry>
        </mxCell>
      </root>
    </mxGraphModel>
  </diagram>
</mxfile>
